<svg xmlns="http://www.w3.org/2000/svg" viewBox="0 0 512 512">
    <path fill="#8CC8D4" d="M422.577,274.401c-0.065-1.665-6.404-149.601-201.371-274.077h-0.005
	C25.128,125.506,19.829,274.44,19.829,274.44l0,0c-1.793,10.881-2.741,22.047-2.741,33.436
	c0,112.732,91.387,204.119,204.119,204.119s204.119-91.387,204.119-204.119C425.325,296.474,424.375,285.294,422.577,274.401z"/>
    <path fill="#50B3BA" d="M425.322,307.881c0,112.725-91.384,204.119-204.12,204.119c-95.829,0-176.234-66.05-198.182-155.099
	c37.393,42.199,92.001,68.788,152.814,68.788c112.725,0,204.119-91.384,204.119-204.109c0-11.411-0.957-22.586-2.747-33.483
	c-0.021-0.628-0.947-22.216-12.657-55.545c55.298,77.987,57.983,140.765,58.024,141.845
	C424.375,285.294,425.322,296.469,425.322,307.881z"/>
</svg>
