<svg viewBox="0 0 245 90" version="1.1" baseProfile="full" xmlns="http://www.w3.org/2000/svg">
  <path  fill="#2A2A2A" d="M 10 10 L 20 10 L 20 40 L 40 40 S 60 40 60 60 L 60 60 S 60 80 40 80 L 30 80 S 10 80 10 60 Z M 20 50 L 20 60 S 20 70 30 70 L 40 70 S 50 70 50 60 L 50 60 S 50 50 40 50 Z M 70 40 L 80 40 L 80 80 L 70 80 Z M 85 25 L 90 25 L 90 15 L 100 15 L 100 25 L 110 25 L 110 35 L 100 35 L 100 80 L 90 80 L 90 35 L 85 35 Z"/>
  <path fill="#0077CA" d="M 70 25 L 80 25 L 80 35 L 70 35 Z M 115 5 L 240 5 L 240 85 L 115 85 Z M 145 20 L 145 30 L 150 30 S 160 30 160 40 L 140 40 S 120 40 120 60 L 120 60 S 120 80 140 80 L 150 80 S 170 80 170 60 L 170 40 S 170 20 150 20 Z M 160 50 L 160 60 S 160 70 150 70 L 140 70 S 130 70 130 60 L 130 60 S 130 50 140 50 Z M 180 80 L 190 80 L 190 60 S 190 50 200 50 L 205 50 L 205 40 L 200 40 S 180 40 180 60 Z M 210 25 L 210 35 L 215 35 L 215 80 L 225 80 L 225 35 L 235 35 L 235 25 L 225 25 L 225 15 L 215 15 L 215 25 Z"/>
</svg>